<svg xmlns="http://www.w3.org/2000/svg" width="1920" height="180" viewBox="0 0 1920 180">
  <defs>
    <!-- your blue -->
    <linearGradient id="blue" x1="0" x2="1" y1="0" y2="0">
      <stop offset="0" stop-color="#1d4ed8"/>
      <stop offset="1" stop-color="#2563eb"/>
    </linearGradient>
    <!-- soft shadow -->
    <filter id="shadow" x="-20%" y="-200%" width="140%" height="400%">
      <feGaussianBlur in="SourceAlpha" stdDeviation="6" result="b"/>
      <feOffset dy="4"/>
      <feMerge><feMergeNode/><feMergeNode in="SourceGraphic"/></feMerge>
    </filter>
  </defs>

  <!-- blue cap -->
  <rect x="0" y="0" width="1920" height="48" fill="url(#blue)" opacity=".95"/>

  <!-- subtle "stars" on left blue section -->
  <g opacity=".35">
    <circle cx="28" cy="18" r="3" fill="#fff"/>
    <circle cx="58" cy="30" r="3" fill="#fff"/>
    <circle cx="86" cy="16" r="3" fill="#fff"/>
    <circle cx="116" cy="28" r="3" fill="#fff"/>
    <circle cx="146" cy="14" r="3" fill="#fff"/>
    <circle cx="176" cy="26" r="3" fill="#fff"/>
    <circle cx="206" cy="18" r="3" fill="#fff"/>
    <circle cx="236" cy="30" r="3" fill="#fff"/>
  </g>

  <!-- red / white wave stripes -->
  <path d="M0,60 C300,90 620,30 980,60 C1340,90 1640,30 1920,60 L1920,110 L0,110 Z" fill="#e10600" opacity=".95" filter="url(#shadow)"/>
  <path d="M0,88 C300,118 620,58 980,88 C1340,118 1640,58 1920,88 L1920,120 L0,120 Z" fill="#ffffff" opacity=".90"/>
  <path d="M0,110 C300,140 620,80 980,110 C1340,140 1640,80 1920,110 L1920,140 L0,140 Z" fill="#e10600" opacity=".90"/>

  <!-- transparent remainder -->
  <rect x="0" y="0" width="1920" height="180" fill="none"/>
</svg>
